<svg width="201" height="32" viewBox="0 0 201 32" fill="none" xmlns="http://www.w3.org/2000/svg">
<path d="M18.672 23H15.024L4.048 6.392V23H0.4V0.727999H4.048L15.024 17.304V0.727999H18.672V23ZM30.5665 5.08C31.9318 5.08 33.1372 5.35733 34.1825 5.912C35.2492 6.44533 36.0812 7.11733 36.6785 7.928V5.368H40.3585V23.288C40.3585 24.9093 40.0172 26.3493 39.3345 27.608C38.6518 28.888 37.6598 29.8907 36.3585 30.616C35.0785 31.3413 33.5425 31.704 31.7505 31.704C29.3612 31.704 27.3772 31.1387 25.7985 30.008C24.2198 28.8987 23.3238 27.384 23.1105 25.464H26.7265C27.0038 26.3813 27.5905 27.1173 28.4865 27.672C29.4038 28.248 30.4918 28.536 31.7505 28.536C33.2225 28.536 34.4065 28.088 35.3025 27.192C36.2198 26.296 36.6785 24.9947 36.6785 23.288V20.344C36.0598 21.176 35.2172 21.88 34.1505 22.456C33.1052 23.0107 31.9105 23.288 30.5665 23.288C29.0305 23.288 27.6225 22.904 26.3425 22.136C25.0838 21.3467 24.0812 20.2587 23.3345 18.872C22.6092 17.464 22.2465 15.8747 22.2465 14.104C22.2465 12.3333 22.6092 10.7653 23.3345 9.4C24.0812 8.03467 25.0838 6.97867 26.3425 6.232C27.6225 5.464 29.0305 5.08 30.5665 5.08ZM36.6785 14.168C36.6785 12.952 36.4225 11.896 35.9105 11C35.4198 10.104 34.7692 9.42133 33.9585 8.952C33.1478 8.48267 32.2732 8.248 31.3345 8.248C30.3958 8.248 29.5212 8.48267 28.7105 8.952C27.8998 9.4 27.2385 10.072 26.7265 10.968C26.2358 11.8427 25.9905 12.888 25.9905 14.104C25.9905 15.32 26.2358 16.3867 26.7265 17.304C27.2385 18.2213 27.8998 18.9253 28.7105 19.416C29.5425 19.8853 30.4172 20.12 31.3345 20.12C32.2732 20.12 33.1478 19.8853 33.9585 19.416C34.7692 18.9467 35.4198 18.264 35.9105 17.368C36.4225 16.4507 36.6785 15.384 36.6785 14.168ZM61.31 13.752C61.31 14.4133 61.2673 15.0107 61.182 15.544H47.71C47.8167 16.952 48.3393 18.0827 49.278 18.936C50.2167 19.7893 51.3687 20.216 52.734 20.216C54.6967 20.216 56.0833 19.3947 56.894 17.752H60.83C60.2967 19.3733 59.326 20.7067 57.918 21.752C56.5313 22.776 54.8033 23.288 52.734 23.288C51.0487 23.288 49.534 22.9147 48.19 22.168C46.8673 21.4 45.822 20.3333 45.054 18.968C44.3073 17.5813 43.934 15.9813 43.934 14.168C43.934 12.3547 44.2967 10.7653 45.022 9.4C45.7687 8.01333 46.8033 6.94667 48.126 6.2C49.47 5.45333 51.006 5.08 52.734 5.08C54.398 5.08 55.8807 5.44267 57.182 6.168C58.4833 6.89333 59.4967 7.91733 60.222 9.24C60.9473 10.5413 61.31 12.0453 61.31 13.752ZM57.502 12.6C57.4807 11.256 57.0007 10.1787 56.062 9.368C55.1233 8.55733 53.9607 8.152 52.574 8.152C51.3153 8.152 50.238 8.55733 49.342 9.368C48.446 10.1573 47.9127 11.2347 47.742 12.6H57.502ZM71.716 19.736L76.708 5.368H80.58L73.86 23H69.508L62.82 5.368H66.724L71.716 19.736ZM99.4975 13.752C99.4975 14.4133 99.4548 15.0107 99.3695 15.544H85.8975C86.0042 16.952 86.5268 18.0827 87.4655 18.936C88.4042 19.7893 89.5562 20.216 90.9215 20.216C92.8842 20.216 94.2708 19.3947 95.0815 17.752H99.0175C98.4842 19.3733 97.5135 20.7067 96.1055 21.752C94.7188 22.776 92.9908 23.288 90.9215 23.288C89.2362 23.288 87.7215 22.9147 86.3775 22.168C85.0548 21.4 84.0095 20.3333 83.2415 18.968C82.4948 17.5813 82.1215 15.9813 82.1215 14.168C82.1215 12.3547 82.4842 10.7653 83.2095 9.4C83.9562 8.01333 84.9908 6.94667 86.3135 6.2C87.6575 5.45333 89.1935 5.08 90.9215 5.08C92.5855 5.08 94.0682 5.44267 95.3695 6.168C96.6708 6.89333 97.6842 7.91733 98.4095 9.24C99.1348 10.5413 99.4975 12.0453 99.4975 13.752ZM95.6895 12.6C95.6682 11.256 95.1882 10.1787 94.2495 9.368C93.3108 8.55733 92.1482 8.152 90.7615 8.152C89.5028 8.152 88.4255 8.55733 87.5295 9.368C86.6335 10.1573 86.1002 11.2347 85.9295 12.6H95.6895ZM111.984 5.08C113.37 5.08 114.608 5.368 115.696 5.944C116.805 6.52 117.669 7.37333 118.288 8.504C118.906 9.63467 119.216 11 119.216 12.6V23H115.6V13.144C115.6 11.5653 115.205 10.36 114.416 9.528C113.626 8.67467 112.549 8.248 111.184 8.248C109.818 8.248 108.73 8.67467 107.92 9.528C107.13 10.36 106.736 11.5653 106.736 13.144V23H103.088V5.368H106.736V7.384C107.333 6.65867 108.09 6.09333 109.008 5.688C109.946 5.28267 110.938 5.08 111.984 5.08ZM128.125 8.344V18.104C128.125 18.7653 128.274 19.2453 128.573 19.544C128.893 19.8213 129.426 19.96 130.173 19.96H132.413V23H129.533C127.89 23 126.631 22.616 125.757 21.848C124.882 21.08 124.445 19.832 124.445 18.104V8.344H122.365V5.368H124.445V0.983999H128.125V5.368H132.413V8.344H128.125Z" fill="white"/>
<path d="M148.031 23L139.423 13.048V23H135.775V0.759998H139.423V10.904L148.063 0.759998H152.639L142.975 11.896L152.799 23H148.031ZM171.993 5.368V23H168.345V20.92C167.769 21.6453 167.012 22.2213 166.073 22.648C165.156 23.0533 164.174 23.256 163.129 23.256C161.742 23.256 160.494 22.968 159.385 22.392C158.297 21.816 157.433 20.9627 156.793 19.832C156.174 18.7013 155.865 17.336 155.865 15.736V5.368H159.481V15.192C159.481 16.7707 159.876 17.9867 160.665 18.84C161.454 19.672 162.532 20.088 163.897 20.088C165.262 20.088 166.34 19.672 167.129 18.84C167.94 17.9867 168.345 16.7707 168.345 15.192V5.368H171.993ZM192.678 5.368L181.862 31.288H178.086L181.67 22.712L174.726 5.368H178.79L183.75 18.808L188.902 5.368H192.678ZM200.007 0.759998L199.591 16.28H196.551L196.135 0.759998H200.007ZM198.183 23.224C197.522 23.224 196.967 23 196.519 22.552C196.071 22.104 195.847 21.5493 195.847 20.888C195.847 20.2267 196.071 19.672 196.519 19.224C196.967 18.776 197.522 18.552 198.183 18.552C198.823 18.552 199.367 18.776 199.815 19.224C200.263 19.672 200.487 20.2267 200.487 20.888C200.487 21.5493 200.263 22.104 199.815 22.552C199.367 23 198.823 23.224 198.183 23.224Z" fill="#01FB34"/>
</svg>
